<svg xmlns="http://www.w3.org/2000/svg" xmlns:xlink="http://www.w3.org/1999/xlink" width="115.733" height="191.539" viewBox="0 0 115.733 191.539">
  <defs>
    <linearGradient id="linear-gradient" x1="0.5" x2="0.5" y2="1" gradientUnits="objectBoundingBox">
      <stop offset="0"/>
      <stop offset="0.736" stop-color="#313131" stop-opacity="0.42"/>
      <stop offset="1" stop-color="#545454" stop-opacity="0"/>
    </linearGradient>
  </defs>
  <g id="Group_542" data-name="Group 542" transform="translate(-129.463 -67.325)">
    <g id="Group_539" data-name="Group 539">
      <path id="Path_215" data-name="Path 215" d="M635.9,247.607a56.008,56.008,0,0,1,3.307,4.757,39.925,39.925,0,0,1,2.321,4.351l12.255-.322s-.959-2.559-2.54-5.939a17.307,17.307,0,0,1-1.3-7.449L634.8,245.75Z" transform="translate(-445 1)" fill="#43a0e7"/>
      <path id="Path_216" data-name="Path 216" d="M635.9,247.607a56.008,56.008,0,0,1,3.307,4.757,39.925,39.925,0,0,1,2.321,4.351l12.255-.322s-.959-2.559-2.54-5.939a17.307,17.307,0,0,1-1.3-7.449L634.8,245.75Z" transform="translate(-445 1)" opacity="0.1"/>
    </g>
    <g id="Group_540" data-name="Group 540">
      <path id="Path_217" data-name="Path 217" d="M603.805,241.417a35.017,35.017,0,0,0-6.109,6.335,64.127,64.127,0,0,0-5.581,9.126l-12.9.377a36.241,36.241,0,0,0,5.279-12.142c1.867-7.6,2.187-18.251,2.187-18.251Z" transform="translate(-445)" fill="#43a0e7"/>
      <path id="Path_218" data-name="Path 218" d="M603.805,241.417a35.017,35.017,0,0,0-6.109,6.335,64.127,64.127,0,0,0-5.581,9.126l-12.9.377a36.241,36.241,0,0,0,5.279-12.142c1.867-7.6,2.187-18.251,2.187-18.251Z" transform="translate(-445)" fill="#000204" opacity="0.1"/>
    </g>
    <path id="Path_209" data-name="Path 209" d="M663.929,258.864h12.808s-.333-11.061,2.615-20.517c1.381-4.43,9.043-18.247,10.452-31.1,1.319-12.036-3.6-23.155-3.6-23.155a49.843,49.843,0,0,1-5.958-10.366,15.448,15.448,0,0,1-.892-5.863c0-6.734,7.647-10.706,7.647-10.706a40.882,40.882,0,0,0-10.324,1.912,36.863,36.863,0,0,0-8.456,4.674,41.03,41.03,0,0,0-16.09-7.1c-9.347-1.775-21.3,0-39.752,3.313,0,0-20.667,3.922-29.765,17.211s-9.362,26.35-6.628,35.943c2.931,10.285,10.365,18.306,10.365,18.306s21.7,14,24.3,18.02,2.549,9.428,2.549,9.428h11.006a23.483,23.483,0,0,1,4.289-7.389,14.691,14.691,0,0,1,7.01-3.969c7.124-1.786,18.354-1.257,21.158,1.165C661.38,251.475,663.929,258.864,663.929,258.864Z" transform="translate(-445)" fill="#43a0e7"/>
    <path id="Path_210" data-name="Path 210" d="M633.467,164.548a28.642,28.642,0,0,0-8.285,4.206,98.088,98.088,0,0,0-10.2,8.795,11.115,11.115,0,0,1-5.226-1.657,9.207,9.207,0,0,1-2.8-4.334s9.3-19.406,15.932-21.158S633.467,164.548,633.467,164.548Z" transform="translate(-445)" fill="#43a0e7"/>
    <path id="Path_211" data-name="Path 211" d="M686.872,157.12s3.536,6.5,3.313,12.782-4.137,14.235-4.137,14.235-7.432-10.063-7.209-16.34S686.872,157.12,686.872,157.12Z" transform="translate(-445)" fill="#43a0e7"/>
    <path id="Path_213" data-name="Path 213" d="M686.872,157.12s3.536,6.5,3.313,12.782-4.137,14.235-4.137,14.235-5.67-8.813-5.447-15.09S686.872,157.12,686.872,157.12Z" transform="translate(-445)" opacity="0.1"/>
    <path id="Path_214" data-name="Path 214" d="M633.467,164.548a28.642,28.642,0,0,0-8.285,4.206,98.088,98.088,0,0,0-10.2,8.795s1.275-25.4,7.9-27.149S633.467,164.548,633.467,164.548Z" transform="translate(-445)" opacity="0.1"/>
    <path id="Path_219" data-name="Path 219" d="M637.036,189.53c1.243-.319,2.453,2.1,2.677,3.7a2.148,2.148,0,0,1-1.784,2.677c-1.243.319-2.963.191-3.186-1.4S635.794,189.849,637.036,189.53Z" transform="translate(-445 1)" fill="#3c90d0"/>
    <path id="Path_220" data-name="Path 220" d="M637.432,189.53c-1.243-.319-2.453,2.1-2.677,3.7a2.148,2.148,0,0,0,1.784,2.677c1.243.319,2.963.191,3.186-1.4S638.674,189.849,637.432,189.53Z" transform="translate(-407)" fill="#3c90d0"/>
    <path id="Path_224" data-name="Path 224" d="M672.477,203.006h0l12.094,22.8a109.557,109.557,0,0,0-5.221,12.674,84.025,84.025,0,0,0-3.039,13.2l-28.334-36.089Z" transform="translate(-445)" opacity="0.1" fill="url(#linear-gradient)"/>
    <circle id="Ellipse_104" data-name="Ellipse 104" cx="14" cy="14" r="14" transform="translate(201 195)" fill="#fff"/>
    <g id="Group_541" data-name="Group 541">
      <path id="Path_222" data-name="Path 222" d="M663.688,208.986a3.173,3.173,0,0,1,2.64-2.489c1.15,0,2.036,1.414,1.961,2.489a2.133,2.133,0,0,1-2.263,1.81C664.876,210.8,663.613,210.061,663.688,208.986Z" transform="translate(-445)" fill="#43a0e7"/>
      <path id="Path_223" data-name="Path 223" d="M668.29,208.986a3.173,3.173,0,0,0-2.64-2.489c-1.15,0-2.036,1.414-1.961,2.489a2.133,2.133,0,0,0,2.263,1.81C667.1,210.8,668.366,210.061,668.29,208.986Z" transform="translate(-456)" fill="#43a0e7"/>
    </g>
    <path id="Path_228" data-name="Path 228" d="M648.012,111.5l5.046-.172s1.476-.721,2.987-3.467,1.837-5.472,3.055-7.518c2.36-3.965,3.742-4.7,3.742-4.7l-.275-1.751-3.742,2.128s-2.555,5.2-4.36,7.93-.372,2.711-2.106,3.273a12.437,12.437,0,0,1-4.348.242Z" transform="translate(-445)" fill="#f8d1b5"/>
    <path id="Path_229" data-name="Path 229" d="M627.539,115.226a2.586,2.586,0,0,1-.848,1.16,13.916,13.916,0,0,0-1.339,2.856c-.657,1.492-1.3,1.667-1.29,3.11.031,4.519,2.629,11.081,2.629,11.081s-.926,2.867-2.142,0c-.7-1.643-.989-3.294-1.7-5.578a29.068,29.068,0,0,1-.982-5.8,12.588,12.588,0,0,1,3.079-8.925Z" transform="translate(-445)" fill="#f8d1b5"/>
    <path id="Path_230" data-name="Path 230" d="M639.719,108.188a7.6,7.6,0,0,1,.141-2.891c.061-.249.738-.211,1.219-1.328s.676-1.941-.078-2.922a2.607,2.607,0,0,0-2.937-1,2.414,2.414,0,0,0-2.187,2.125c-.207,1.254.723,1.6,1.141,3.125a4.351,4.351,0,0,1-.172,2.75C636.844,108.109,639.719,108.188,639.719,108.188Z" transform="translate(-445)" fill="#f8d1b5"/>
    <path id="Path_231" data-name="Path 231" d="M635.281,102.563c.355.742.879.3,1.969.078s1.332-.754,2.391-.953,1.9.949,1.844.156a1.593,1.593,0,0,0,.109-1.687A3.052,3.052,0,0,0,639,98.516a2.538,2.538,0,0,0-2.687,1.031C635.391,100.5,634.926,101.82,635.281,102.563Z" transform="translate(-445)" fill="#43a0e7"/>
    <path id="Path_226" data-name="Path 226" d="M645.063,137.146c-.318-4.852-1.508-13.807-1.508-13.807s-11.893-.174-12.009.522,0,17.172,0,17.172a22.286,22.286,0,0,0-2.089,5.279,74.172,74.172,0,0,0-1.508,8.006l2.553,2.9s1.733-4.808,3.829-10.907c.422-1.225,1.551-3.05,1.972-4.583a74.173,74.173,0,0,0,2.379-14.272,118.63,118.63,0,0,1,1.276,13.227c.319,7.542,0,16.94,0,16.94l2.553-1.1A57.66,57.66,0,0,0,643.9,149.1C644.657,143.789,645.381,142,645.063,137.146Z" transform="translate(-445)"/>
    <path id="Path_227" data-name="Path 227" d="M631.6,123.922l11.974-.328s.383-4.026.789-6.985.029-2.785.986-4a3.189,3.189,0,0,1,2.843-.87v-4.293H632.822a29.894,29.894,0,0,0-4.177,2.321,42.869,42.869,0,0,0-4.177,3.307l3.075,2.263s2.176-1.523,3.191-.406.638,2.615.87,4.873A20.348,20.348,0,0,1,631.6,123.922Z" transform="translate(-445)" fill="#1c1b1b"/>
    <path id="Path_232" data-name="Path 232" d="M654.761,63.325c-3.481.056-6.083-.633-5.759,5.313.291,5.352.582,16.267,3.913,18.473.076.073,2.792.006,3.14,0,3.481-.056,6.705-6.638,6.382-12.585S658.242,63.269,654.761,63.325Z" transform="translate(-436 4)" fill="#e2c865"/>
    <path id="Path_233" data-name="Path 233" d="M654.761,63.325c-3.481.056-6.571,5.478-6.248,11.424s4.061,12.417,7.542,12.362,6.705-6.638,6.382-12.585S658.242,63.269,654.761,63.325Z" transform="translate(-439 4)" fill="#ebd586"/>
  </g>
</svg>
