<svg xmlns="http://www.w3.org/2000/svg" xmlns:xlink="http://www.w3.org/1999/xlink" width="42" height="42" viewBox="0 0 42 42">
  <defs>
    <linearGradient id="linear-gradient" x1="0.361" y1="0.395" x2="1" y2="1" gradientUnits="objectBoundingBox">
      <stop offset="0" stop-color="#60c6bb"/>
      <stop offset="1" stop-color="#43a0e7"/>
    </linearGradient>
  </defs>
  <g id="items" transform="translate(-20 -15)">
    <circle id="Ellipse_25" data-name="Ellipse 25" cx="21" cy="21" r="21" transform="translate(20 15)" fill="url(#linear-gradient)"/>
    <g id="Iconly_Broken_Category" data-name="Iconly/Broken/Category" transform="translate(29.5 24.904)">
      <g id="Category" transform="translate(2.5 2.096)">
        <path id="Category-2" data-name="Category" d="M12.6,18a2.778,2.778,0,0,1-2.723-2.789v-2.72A2.755,2.755,0,0,1,12.6,9.712h2.664A2.776,2.776,0,0,1,18,12.491v2.72A2.788,2.788,0,0,1,15.268,18Zm-1.262-5.509v2.72a1.288,1.288,0,0,0,.367.913,1.231,1.231,0,0,0,.885.374h2.683a1.231,1.231,0,0,0,.885-.374,1.285,1.285,0,0,0,.367-.913v-2.72a1.3,1.3,0,0,0-.369-.911,1.242,1.242,0,0,0-.892-.377H12.6A1.276,1.276,0,0,0,11.342,12.491Zm-8.611,5.5A2.819,2.819,0,0,1,0,15.2V12.491a2.809,2.809,0,0,1,.8-1.969,2.692,2.692,0,0,1,1.93-.811H3.826a.728.728,0,0,1,.7.348.763.763,0,0,1,0,.8.729.729,0,0,1-.7.349H2.731a1.283,1.283,0,0,0-1.27,1.287v2.686a1.308,1.308,0,0,0,1.27,1.287H5.412a1.244,1.244,0,0,0,.9-.374,1.3,1.3,0,0,0,.373-.913V11.144a.756.756,0,0,1,.329-.77.723.723,0,0,1,.823.024.759.759,0,0,1,.285.789V15.2a2.76,2.76,0,0,1-2.731,2.788ZM14.2,8.314a.752.752,0,0,1,0-1.493h1.069a1.253,1.253,0,0,0,.9-.388,1.313,1.313,0,0,0,.363-.925V2.788A1.292,1.292,0,0,0,15.268,1.5H12.6a1.275,1.275,0,0,0-1.262,1.287V6.855a.75.75,0,0,1-.751.733.721.721,0,0,1-.512-.232.752.752,0,0,1-.2-.535V2.788A2.811,2.811,0,0,1,10.675.817,2.7,2.7,0,0,1,12.6,0h2.664a2.819,2.819,0,0,1,2.722,2.788V5.5a2.81,2.81,0,0,1-.773,1.975,2.7,2.7,0,0,1-1.916.839ZM5.4,8.288H2.731A2.778,2.778,0,0,1,0,5.508V2.788A2.788,2.788,0,0,1,2.731,0H5.4A2.775,2.775,0,0,1,8.127,2.788v2.72a2.791,2.791,0,0,1-.8,1.969A2.68,2.68,0,0,1,5.4,8.288ZM1.823,1.869a1.309,1.309,0,0,0-.378.919v2.72a1.305,1.305,0,0,0,.369.936,1.25,1.25,0,0,0,.889.377H5.4a1.249,1.249,0,0,0,.9-.388,1.3,1.3,0,0,0,.363-.925V2.788A1.289,1.289,0,0,0,5.4,1.5H2.706A1.242,1.242,0,0,0,1.823,1.869Z" transform="translate(0 0)" fill="#fff"/>
      </g>
    </g>
  </g>
</svg>
