<svg xmlns="http://www.w3.org/2000/svg" xmlns:xlink="http://www.w3.org/1999/xlink" width="37" height="37" viewBox="0 0 37 37">
  <defs>
    <linearGradient id="linear-gradient" x1="0.343" y1="0.378" x2="1.064" y2="1" gradientUnits="objectBoundingBox">
      <stop offset="0" stop-color="#c1bcfd"/>
      <stop offset="1" stop-color="#3589e0"/>
    </linearGradient>
  </defs>
  <g id="image" transform="translate(-26 -22.944)">
    <path id="Path_206" data-name="Path 206" d="M18.5,0A18.5,18.5,0,1,1,0,18.5,18.5,18.5,0,0,1,18.5,0Z" transform="translate(26 22.944)" fill="url(#linear-gradient)"/>
    <g id="Iconly_Light-outline_Image" data-name="Iconly/Light-outline/Image" transform="translate(36 33)">
      <g id="Image-2" data-name="Image">
        <path id="Image-3" data-name="Image" d="M4.812,17a4.671,4.671,0,0,1-3.49-1.4A5.135,5.135,0,0,1,0,11.972V5.027A5.135,5.135,0,0,1,1.323,1.4,4.671,4.671,0,0,1,4.812,0H12.18a4.684,4.684,0,0,1,3.495,1.4A5.131,5.131,0,0,1,17,5.027v6.946A5.128,5.128,0,0,1,15.674,15.6,4.682,4.682,0,0,1,12.18,17ZM1.278,5.027v6.946A3.892,3.892,0,0,0,2.233,14.7a3.428,3.428,0,0,0,2.579,1.021H12.18a3.421,3.421,0,0,0,3.543-3.749V5.027A3.42,3.42,0,0,0,12.18,1.278H4.812A3.416,3.416,0,0,0,1.278,5.027Zm1.078,7.735a.638.638,0,0,1-.084-.83l.06-.073,1.3-1.374a1.834,1.834,0,0,1,2.544-.117l.106.1.754.77a.582.582,0,0,0,.8.028L7.9,11.2,9.8,8.89a2.075,2.075,0,0,1,2.984-.234l.111.106,1.768,1.825a.639.639,0,0,1-.847.952l-.07-.063L11.978,9.652a.8.8,0,0,0-1.122-.024l-.069.074-1.9,2.31a1.859,1.859,0,0,1-2.661.22l-.1-.1-.757-.773a.558.558,0,0,0-.737-.06l-.07.063-1.3,1.375a.638.638,0,0,1-.9.024Zm1.1-6.683A2.132,2.132,0,1,1,5.587,8.213,2.135,2.135,0,0,1,3.455,6.079Zm1.278,0a.855.855,0,1,0,.855-.855A.856.856,0,0,0,4.732,6.079Z" fill="#fff"/>
      </g>
    </g>
  </g>
</svg>
